# xmcd CD database file
#
# Track frame offsets:
#	150
#	22257
#	40745
#	61295
#	86962
#	110495
#	133145
#	151970
#	170372
#	193875
#
# Disc length: 2950 seconds
#
# Revision: 0
# Processed by: cddbd v1.5.2PL0 Copyright (c) Steve Scherf et al.
# Submitted via: CDex 1.51
#
DISCID=8c0b840a
DTITLE=Son of 76 and The Watchmen - Imaginary Man
DYEAR=2008
DGENRE=Blues
TTITLE0=Wild Open Blues
TTITLE1=Again and Again
TTITLE2=Imaginary Man
TTITLE3=The Chosen Few
TTITLE4=We Can Come Together
TTITLE5=House of Dust
TTITLE6=Little Mexico
TTITLE7=Take Me to New Orleans
TTITLE8=Ballad of the Busker
TTITLE9=Out of Sight
EXTD=YEAR: 2008
EXTT0=
EXTT1=
EXTT2=
EXTT3=
EXTT4=
EXTT5=
EXTT6=
EXTT7=
EXTT8=
EXTT9=
PLAYORDER=
